<svg xmlns="http://www.w3.org/2000/svg" width="578.225" height="35.977" viewBox="0 0 578.225 35.977">
  <g id="Group_58" data-name="Group 58" transform="translate(-20.567 -22.093)">
    <path id="Path_7" data-name="Path 7" d="M665.048,45.428c0-1.851-1.64-2.381-3.756-2.381h-27.67v4.921h27.67C663.408,47.968,665.048,47.438,665.048,45.428Z" transform="translate(-272.543 -9.315)" fill="#fff"/>
    <path id="Path_8" data-name="Path 8" d="M769.442,41.437,762.31,52.529h14.323Z" transform="translate(-329.754 -8.6)" fill="#fff"/>
    <path id="Path_9" data-name="Path 9" d="M33.794,40.552l16.93,17.3H66.6l16.93-17.369V57.857H96.752V24H83.526L58.62,49.707,33.794,24H20.567v33.86H33.794Z" transform="translate(0 -0.846)"/>
    <path id="Path_10" data-name="Path 10" d="M201.014,58.915c15.184,0,30.369-2.963,30.369-17.988V24H218.155V38.546c0,8.359-6.666,9.682-17.142,9.682-10.793,0-17.194-1.322-17.194-9.682V24H170.593v16.93C170.593,55.952,184.93,58.915,201.014,58.915Z" transform="translate(-66.696 -0.846)"/>
    <path id="Path_11" data-name="Path 11" d="M298.126,57.878h38.833V47.826H306.125V24H292.9v33.86h5.227Z" transform="translate(-121.069 -0.846)"/>
    <path id="Path_12" data-name="Path 12" d="M385.048,57.857h13.227V34.313h20.9V24H364.15V34.313h20.9Z" transform="translate(-152.745 -0.846)"/>
    <rect id="Rectangle_41" data-name="Rectangle 41" width="13.227" height="23.596" transform="translate(270.502 33.409)"/>
    <rect id="Rectangle_42" data-name="Rectangle 42" width="13.438" height="7.975" transform="translate(270.396 22.621)"/>
    <path id="Path_13" data-name="Path 13" d="M522.594,57.857h13.227V34.313h20.9V24H501.7V34.313h20.9Z" transform="translate(-213.893 -0.846)"/>
    <path id="Path_14" data-name="Path 14" d="M623.036,48.334h19.628c8.465,0,10.6.688,10.6,3.862v5.661h13.227V50.608c0-3.37-1.745-4.853-7.436-5.454,4.927-.889,8.636-3.252,8.636-9.518,0-8.73-7.407-11.639-16.983-11.639h-40.9v33.86h13.227Zm0-13.756h27.67c2.116,0,3.756.529,3.756,2.381,0,2.011-1.64,2.54-3.756,2.54h-27.67Z" transform="translate(-261.957 -0.846)"/>
    <path id="Path_15" data-name="Path 15" d="M738.829,52.712H763.4l3.336,5.145h14.549L758.376,24H743.668l-22.7,33.86h14.55Zm12.236-19.028,7.191,11.092H743.932Z" transform="translate(-311.376 -0.846)"/>
    <path id="Path_16" data-name="Path 16" d="M863,58.07c20.034,0,29.68-5.086,30.26-15.21H879.531c-1.362,2.569-5.061,4.893-16.532,4.893-13.544,0-19.152-2.222-19.152-7.407,0-5.132,5.608-7.407,19.152-7.407,11.494,0,15.214,2.367,16.56,4.952h13.733c-.547-10.158-10.219-15.8-30.293-15.8-20.422,0-32.961,4.285-32.961,18.253S842.577,58.07,863,58.07Z" transform="translate(-359.863 0)"/>
    <path id="Path_17" data-name="Path 17" d="M969.1,39.962l25.289,17.895H1014.6l-27.19-18.109L1011.738,24H990.787L969.1,39.788V24H955.869v33.86H969.1Z" transform="translate(-415.803 -0.846)"/>
  </g>
</svg>
